<mxfile host="65bd71144e">
    <diagram id="CUroTIXrDrp7061Ok9NZ" name="Page-1">
        <mxGraphModel dx="1408" dy="858" grid="1" gridSize="10" guides="1" tooltips="1" connect="1" arrows="1" fold="1" page="1" pageScale="1" pageWidth="850" pageHeight="1100" background="#ffffff" math="0" shadow="0">
            <root>
                <mxCell id="0"/>
                <mxCell id="1" parent="0"/>
                <mxCell id="3" value="" style="swimlane;startSize=0;fillColor=#dae8fc;strokeColor=#6c8ebf;" parent="1" vertex="1">
                    <mxGeometry x="200" y="160" width="480" height="480" as="geometry"/>
                </mxCell>
                <mxCell id="4" value="物理机" style="text;html=1;strokeColor=none;fillColor=none;align=center;verticalAlign=middle;whiteSpace=wrap;rounded=0;" parent="3" vertex="1">
                    <mxGeometry x="110" y="10" width="190" height="40" as="geometry"/>
                </mxCell>
                <mxCell id="22" style="edgeStyle=none;html=1;" parent="3" source="5" target="19" edge="1">
                    <mxGeometry relative="1" as="geometry"/>
                </mxCell>
                <mxCell id="5" value="docker-1" style="rounded=0;whiteSpace=wrap;html=1;fillColor=#d5e8d4;strokeColor=#82b366;" parent="3" vertex="1">
                    <mxGeometry x="40" y="325" width="190" height="110" as="geometry"/>
                </mxCell>
                <mxCell id="9" value="docker-1" style="rounded=0;whiteSpace=wrap;html=1;fillColor=#d5e8d4;strokeColor=#82b366;" parent="3" vertex="1">
                    <mxGeometry x="252.5" y="325" width="190" height="110" as="geometry"/>
                </mxCell>
                <mxCell id="10" value="docker0" style="rounded=0;whiteSpace=wrap;html=1;fillColor=#dae8fc;strokeColor=#6c8ebf;" parent="3" vertex="1">
                    <mxGeometry x="40" y="110" width="380" height="60" as="geometry"/>
                </mxCell>
                <mxCell id="11" value="etho(172.17.0.3)" style="rounded=0;whiteSpace=wrap;html=1;fillColor=#dae8fc;strokeColor=#6c8ebf;" parent="3" vertex="1">
                    <mxGeometry x="80" y="325" width="105" height="30" as="geometry"/>
                </mxCell>
                <mxCell id="18" value="etho(172.17.0.2)" style="rounded=0;whiteSpace=wrap;html=1;fillColor=#dae8fc;strokeColor=#6c8ebf;" parent="3" vertex="1">
                    <mxGeometry x="300" y="325" width="105" height="30" as="geometry"/>
                </mxCell>
                <mxCell id="19" value="veth1fc062f@if9" style="rounded=0;whiteSpace=wrap;html=1;fillColor=#f8cecc;strokeColor=#b85450;" parent="3" vertex="1">
                    <mxGeometry x="65" y="170" width="135" height="30" as="geometry"/>
                </mxCell>
                <mxCell id="23" style="edgeStyle=none;html=1;" parent="3" source="20" target="18" edge="1">
                    <mxGeometry relative="1" as="geometry"/>
                </mxCell>
                <mxCell id="20" value="veth6bc75d9@if7" style="rounded=0;whiteSpace=wrap;html=1;fillColor=#f8cecc;strokeColor=#b85450;" parent="3" vertex="1">
                    <mxGeometry x="280" y="170" width="135" height="30" as="geometry"/>
                </mxCell>
            </root>
        </mxGraphModel>
    </diagram>
</mxfile>